Coordinates
version=1
nRows=9
nColumns=24
inDegrees=yes

Units are S.I. units (second, meters, Newtons, ...)
Angles are in degrees.

endheader
time	pelvis_tilt	pelvis_list	pelvis_rotation	pelvis_tx	pelvis_ty	pelvis_tz	hip_flexion_r	hip_adduction_r	hip_rotation_r	knee_angle_r	ankle_angle_r	subtalar_angle_r	mtp_angle_r	hip_flexion_l	hip_adduction_l	hip_rotation_l	knee_angle_l	ankle_angle_l	subtalar_angle_l	mtp_angle_l	lumbar_extension	lumbar_bending	lumbar_rotation
      0.01000000	     54.68258721	     -3.63265267	    -15.47886094	      0.42939192	      1.03160368	     -0.33795330	     28.82099943	     -1.18257999	     20.82758047	    -19.77829364	     -0.67889583	     43.01370249	      0.00000000	      7.48935223	    -19.65037151	    -12.46019081	    -62.86841893	     24.56324067	     27.12727143	      0.00000000	      0.00000000	      0.00000000	      0.00000000
      0.02000000	     54.67576495	     -3.64644349	    -15.46642708	      0.42934403	      1.03161246	     -0.33792190	     28.81485077	     -1.17062848	     20.82295195	    -19.76333586	     -0.69531993	     43.01112688	      0.00000000	      7.49497651	    -19.67331304	    -12.45841800	    -62.86233259	     24.56030498	     27.11736691	      0.00000000	      0.00000000	      0.00000000	      0.00000000
      0.03000000	     54.66979137	     -3.66114119	    -15.45544594	      0.42930338	      1.03163259	     -0.33789369	     28.80630461	     -1.15912206	     20.81717310	    -19.74794197	     -0.71167594	     43.00768894	      0.00000000	      7.49739971	    -19.69475463	    -12.45663016	    -62.85755597	     24.55877799	     27.10692409	      0.00000000	      0.00000000	      0.00000000	      0.00000000
      0.04000000	     54.66564243	     -3.67633226	    -15.44649826	      0.42928496	      1.03166233	     -0.33787373	     28.79484737	     -1.14848225	     20.80997925	    -19.73236881	     -0.72720892	     43.00342139	      0.00000000	      7.49590925	    -19.71409668	    -12.45475884	    -62.85417576	     24.55873738	     27.09628042	      0.00000000	      0.00000000	      0.00000000	      0.00000000
      0.05000000	     54.66426222	     -3.69146165	    -15.43977337	      0.42928886	      1.03169617	     -0.33786316	     28.78025062	     -1.13918383	     20.80125637	    -19.71699368	     -0.74092887	     42.99855995	      0.00000000	      7.49025470	    -19.73101767	    -12.45271661	    -62.85191753	     24.55981153	     27.08611066	      0.00000000	      0.00000000	      0.00000000	      0.00000000
      0.06000000	     54.66611726	     -3.70606819	    -15.43473741	      0.42930017	      1.03173106	     -0.33786106	     28.76292268	     -1.13153915	     20.79129347	    -19.70224395	     -0.75192474	     42.99357199	      0.00000000	      7.48112323	    -19.74558602	    -12.45035873	    -62.85004062	     24.56091974	     27.07746507	      0.00000000	      0.00000000	      0.00000000	      0.00000000
      0.07000000	     54.67081945	     -3.71979197	    -15.43028272	      0.42930298	      1.03176570	     -0.33786634	     28.74400976	     -1.12560594	     20.78097185	    -19.68865065	     -0.75966075	     42.98908840	      0.00000000	      7.47004993	    -19.75788099	    -12.44733949	    -62.84762602	     24.56026776	     27.07171888	      0.00000000	      0.00000000	      0.00000000	      0.00000000
      0.08000000	     54.67707084	     -3.73213483	    -15.42532333	      0.42929117	      1.03179773	     -0.33787547	     28.72524030	     -1.12125573	     20.77174686	    -19.67696890	     -0.76415560	     42.98578513	      0.00000000	      7.45893151	    -19.76761228	    -12.44291978	    -62.84406579	     24.55565048	     27.07039592	      0.00000000	      0.00000000	      0.00000000	      0.00000000
      0.09000000	     54.68317266	     -3.74229705	    -15.41954698	      0.42927187	      1.03182274	     -0.33788126	     28.70859995	     -1.11834926	     20.76531851	    -19.66815637	     -0.76600492	     42.98424907	      0.00000000	      7.44950370	    -19.77424105	    -12.43592070	    -62.83935908	     24.54504650	     27.07484585	      0.00000000	      0.00000000	      0.00000000	      0.00000000
